HIERARCHY
ROOT Hips
{
  OFFSET -187.679 86.5976 -156.378
  CHANNELS 6 Xposition Yposition Zposition Zrotation Xrotation Yrotation
  JOINT LeftUpLeg
  {
    OFFSET 8.64259 1.95398 -2.38835
    CHANNELS 3 Zrotation Xrotation Yrotation
    JOINT LeftLeg
    {
      OFFSET 43.7702 0 0
      CHANNELS 3 Zrotation Xrotation Yrotation
      JOINT LeftFoot
      {
        OFFSET 40.6238 0 0
        CHANNELS 3 Zrotation Xrotation Yrotation
        JOINT LeftToeBase
        {
          OFFSET 12.7242 0 0
          CHANNELS 3 Zrotation Xrotation Yrotation
          End Site
          {
            OFFSET 0 0 0
          }
        }
      }
    }
  }
  JOINT RightUpLeg
  {
    OFFSET -8.2249 1.95398 -2.59336
    CHANNELS 3 Zrotation Xrotation Yrotation
    JOINT RightLeg
    {
      OFFSET 43.5653 0 0
      CHANNELS 3 Zrotation Xrotation Yrotation
      JOINT RightFoot
      {
        OFFSET 40.6238 0 0
        CHANNELS 3 Zrotation Xrotation Yrotation
        JOINT RightToeBase
        {
          OFFSET 12.7242 0 0
          CHANNELS 3 Zrotation Xrotation Yrotation
          End Site
          {
            OFFSET 0 0 0
          }
        }
      }
    }
  }
  JOINT Spine
  {
    OFFSET 0.165834 0.87714 6.61349
    CHANNELS 3 Zrotation Xrotation Yrotation
    JOINT Spine1
    {
      OFFSET 7.38963 1.71661e-005 0
      CHANNELS 3 Zrotation Xrotation Yrotation
      JOINT Spine2
      {
        OFFSET 11.9445 1.14441e-005 0
        CHANNELS 3 Zrotation Xrotation Yrotation
        JOINT Spine3
        {
          OFFSET 14.7254 4.19617e-005 0
          CHANNELS 3 Zrotation Xrotation Yrotation
          JOINT Spine4
          {
            OFFSET 10.9679 0 0
            CHANNELS 3 Zrotation Xrotation Yrotation
            JOINT RightShoulder
            {
              OFFSET 2.46616 -1.6653 3.69651
              CHANNELS 3 Zrotation Xrotation Yrotation
              JOINT RightArm
              {
                OFFSET 13.0012 0 0
                CHANNELS 3 Zrotation Xrotation Yrotation
                JOINT RightForeArm
                {
                  OFFSET 28.7848 1.52588e-005 0
                  CHANNELS 3 Zrotation Xrotation Yrotation
                  JOINT RightHand
                  {
                    OFFSET 26.5688 1.52588e-005 0
                    CHANNELS 3 Zrotation Xrotation Yrotation
                    End Site
                    {
                      OFFSET 0 0 0
                    }
                  }
                }
              }
            }
            JOINT LeftShoulder
            {
              OFFSET 2.38034 -1.29275 -3.7523
              CHANNELS 3 Zrotation Xrotation Yrotation
              JOINT LeftArm
              {
                OFFSET 16.3182 6.10352e-005 0
                CHANNELS 3 Zrotation Xrotation Yrotation
                JOINT LeftForeArm
                {
                  OFFSET 27.0901 0 0
                  CHANNELS 3 Zrotation Xrotation Yrotation
                  JOINT LeftHand
                  {
                    OFFSET 24.5451 1.52588e-005 0
                    CHANNELS 3 Zrotation Xrotation Yrotation
                    End Site
                    {
                      OFFSET 0 0 0
                    }
                  }
                }
              }
            }
            JOINT Neck
            {
              OFFSET 5.0226 -0.0266342 0
              CHANNELS 3 Zrotation Xrotation Yrotation
              JOINT Head
              {
                OFFSET 6.69363 2.86102e-005 0
                CHANNELS 3 Zrotation Xrotation Yrotation
                End Site
                {
                  OFFSET 0 0 0
                }
              }
            }
          }
        }
      }
    }
  }
}
MOTION
Frames:	10
Frame Time:	0.0416667
-4.41621 99.7294 95.9938 -137.386 -80.3839 -138.725 -177.062 2.0677 81.9229 -34.1232 28.0575 9.16197 75.7232 8.34018 2.85987 9.27485 -8.31089 0.595446 176.785 16.3877 88.3701 -54.2853 11.5804 -2.98905 72.6007 -5.3055 -2.66915 20.1467 -2.74368 3.73427 0.32672 8.07182 -89.6859 10.7281 0.79548 0.551461 -0.942682 0.818977 0.515904 -23.4781 0.592968 0.765038 -3.46547 0.592971 0.765035 85.968 -47.2681 -107.598 29.2434 -22.77 -7.44261 -13.2899 -17.4428 -10.3576 -11.2651 -0.136849 -3.72337 -87.4184 -42.0622 81.3215 -7.08784 13.4101 -23.3714 16.3004 12.5738 -19.2969 -2.95419 -0.114236 1.2236 -5.81621 1.27734 -4.7897 9.61571 1.39309 -2.82796 
-6.11813 99.9733 101.713 -157.52 -82.2061 -157.48 -175.347 -3.07974 85.2559 -32.751 33.3943 10.2709 77.4948 9.98287 3.45198 6.43803 -8.52082 -1.24406 177.631 18.3045 90.403 -37.9754 9.90735 -1.28167 68.5966 -4.19549 -1.7762 21.288 -1.9374 2.13647 -0.17966 8.10445 -89.8902 10.6652 -0.307187 0.246478 -1.00576 -0.296048 0.259755 -23.5412 -0.367073 0.142766 -3.52852 -0.367073 0.142754 86.014 -47.799 -107.357 29.7462 -21.4852 -2.88328 -13.9307 -15.4189 -11.5917 -9.66941 -0.0952937 -4.03473 -87.5842 -38.1039 80.1861 -5.90149 7.8091 -30.0289 17.4061 10.7637 -22.4108 -1.25092 -0.0434049 0.433685 -5.8983 1.5873 -7.09973 9.62704 2.16351 -0.392567 
-7.61627 99.3058 108.085 -172.046 -82.2445 -171.364 -172.63 -8.2165 89.3703 -31.0019 37.9244 9.27032 79.4241 11.6127 2.64733 9.05676 -8.94328 1.55479 177.342 17.4901 91.6958 -20.7736 5.7784 0.703733 64.475 -2.88481 -1.0555 23.6107 -1.92908 3.34849 -0.517761 8.16527 -89.9974 10.5438 -1.03006 0.0970307 -1.1267 -1.02479 0.142276 -23.6651 -1.0116 -0.217059 -3.65243 -1.0116 -0.217066 85.6279 -48.9542 -107.585 29.4289 -20.3731 0.628427 -14.43 -15.6366 -12.3839 -9.95255 -0.0947185 -4.06777 -88.0827 -36.9758 79.0535 -5.06214 1.52701 -35.0896 19.5715 11.0716 -26.9581 1.70264 0.0464869 -0.463162 -5.5866 1.86754 -8.82938 9.20371 2.78104 1.14583 
-9.27212 97.7119 115.065 -173.137 -81.7205 -171.715 -169.264 -13.406 93.7833 -30.1877 40.6785 8.00774 82.3259 13.8293 2.87599 9.35162 -8.36867 0.761118 178.401 16.8921 93.9427 -11.9057 5.49853 1.65764 63.5902 -2.6525 -1.14309 24.072 -1.87282 3.43639 -0.67708 8.20836 -90.0626 10.4575 -1.3774 -0.0026381 -1.21274 -1.37618 0.0579908 -23.7534 -1.31291 -0.416544 -3.74073 -1.31291 -0.416563 84.6741 -51.0422 -108.358 28.5558 -20.0285 2.74106 -14.1714 -15.0516 -11.7287 -8.83145 -0.063099 -4.39577 -88.2162 -37.1037 78.8503 -8.1548 -4.6687 -38.3541 22.6436 12.2391 -33.414 2.38533 0.050576 -0.884575 -5.65176 2.3595 -9.90986 9.19571 3.44182 1.93325 
-10.9597 95.932 123.083 -175.365 -81.3087 -172.569 -165.474 -18.205 99.2474 -30.2805 42.2841 7.60631 84.9556 15.0964 2.17491 7.19269 -8.6388 -0.474387 178.997 18.0663 96.903 -18.2385 5.23647 1.82127 63.9068 -2.17732 -0.675531 24.4151 -1.49483 2.48984 -0.851581 8.16909 -90.2422 10.534 -1.80735 -0.319701 -1.13569 -1.81967 -0.239829 -23.6791 -1.6277 -0.848235 -3.66644 -1.62769 -0.848237 84.7903 -51.5506 -108.025 29.3495 -17.8369 4.43933 -14.8906 -15.6699 -12.0049 -6.63633 -0.0114043 -5.19534 -88.2246 -38.5133 79.1796 -12.8379 -6.96208 -38.923 25.3738 13.1085 -39.0005 2.16984 0.012056 -1.6966 -5.74057 2.96413 -8.64265 8.67707 3.82546 1.07199 
-12.3863 95.2354 131.807 -174.965 -80.8182 -170.735 -163.437 -24.1404 101.972 -27.9736 41.607 10.2553 77.6068 10.1232 2.07463 19.5411 -2.69553 -2.27786 178.837 20.2526 99.0946 -29.468 4.55438 2.39019 61.8161 -0.203943 -2.42161 20.6938 -2.3134 2.87612 -0.983641 8.05123 -90.4371 10.7665 -2.16029 -0.669185 -0.902811 -2.18764 -0.573414 -23.448 -1.85929 -1.28766 -3.43533 -1.85929 -1.28767 85.1705 -51.6008 -107.447 30.5625 -16.371 5.08147 -14.8314 -15.1468 -11.0619 -5.49086 0.0129952 -5.88966 -88.5822 -40.3112 79.0036 -14.4997 -2.61833 -35.025 26.3734 13.8542 -39.5585 1.54816 0.0281182 -0.786192 -6.35266 3.43733 -6.92287 7.81481 4.09507 1.02614 
-13.6268 94.6477 140.192 -169.279 -79.8518 -163.521 -163.723 -24.3502 102.967 -35.7011 40.239 12.1585 67.8008 4.33449 0.99689 29.8147 1.13382 -2.22706 178.106 19.1083 101.233 -38.6428 5.45248 3.31738 64.192 -0.924861 -1.79183 18.4731 -2.39392 1.9768 -0.877429 7.9718 -90.679 10.919 -2.06095 -1.15632 -0.750762 -2.10985 -1.06448 -23.2905 -1.6182 -1.72228 -3.27787 -1.61819 -1.72229 85.3261 -51.0439 -107.388 31.279 -16.5939 4.58486 -14.3877 -14.6274 -10.2323 -4.46479 0.0444941 -6.98489 -88.9031 -41.6148 78.7801 -14.7319 9.03733 -30.6123 21.9243 13.6615 -30.3258 -0.711594 -0.0437862 -1.73905 -7.41557 3.5708 -4.01019 7.77329 3.83572 -0.174946 
-14.8121 94.6892 146.969 -170.053 -78.9311 -163.64 -165.265 -15.6207 103.984 -53.1791 42.3933 13.2105 56.7893 -1.36739 -1.96462 19.5018 -4.81345 2.46074 177.846 15.1927 102.472 -42.3761 5.50875 3.77235 69.5298 -2.65489 -1.98238 19.3151 -2.47968 2.61206 -0.747205 8.07917 -90.7624 10.7033 -1.83921 -1.34748 -0.966918 -1.89673 -1.26522 -23.5028 -1.34928 -1.83789 -3.49017 -1.34928 -1.8379 84.8034 -50.8776 -108.218 29.913 -17.903 1.06099 -14.1783 -14.7849 -10.233 -4.61376 0.057463 -7.28703 -89.0873 -42.0934 78.5911 -13.7582 23.8446 -30.2803 12.6022 12.3036 -13.3708 -6.13097 -0.037851 -5.50238 -6.5586 3.51259 -2.35596 7.50543 3.60608 -0.846914 
-15.4362 95.5601 153.04 -173.21 -79.2422 -167.325 -169.278 -2.91638 101.972 -67.5747 36.8495 12.4545 61.8712 1.09351 -1.18423 15.9855 -7.04617 4.1035 177.42 9.82768 101.589 -40.4743 4.96263 4.29731 72.4948 -3.67824 -1.84181 20.7443 -2.30887 2.87464 -0.515419 8.13304 -90.7054 10.5987 -1.35085 -1.2801 -1.07206 -1.40587 -1.21941 -23.6051 -0.90373 -1.62686 -3.59245 -0.903721 -1.62685 84.6731 -50.495 -108.535 27.0573 -19.7413 -4.30981 -14.0868 -15.5463 -10.8153 -6.75874 0.0537195 -6.40384 -89.6059 -43.1574 78.0043 -18.2996 29.6546 -23.4519 8.0812 11.4868 -5.66258 -3.99549 -0.111405 -2.44628 -5.71094 2.88712 -1.75566 7.89026 2.95789 -0.684117 
-15.7704 96.9324 158.732 -165.932 -79.8165 -161.839 -172.99 8.76267 97.4628 -69.4719 25.7552 9.55991 68.6384 5.10713 2.09738 12.4718 -6.97445 0.739899 177.35 3.61899 99.4904 -34.8727 3.12557 3.63419 73.7358 -4.2942 -1.23229 21.9426 -2.09161 2.89764 -0.0718634 8.10028 -90.5027 10.6723 -0.37459 -0.965383 -0.998957 -0.416711 -0.94797 -23.5312 -0.0671624 -1.03333 -3.51854 -0.0671519 -1.03333 84.6273 -49.9657 -108.775 22.764 -21.8921 -9.97708 -14.0829 -15.8473 -11.8931 -8.21773 0.0133676 -5.5358 -90.4287 -44.8196 77.0983 -26.2425 27.211 -8.93998 10.3003 10.6672 -9.81531 -1.92875 -0.0749347 -0.555619 -5.75083 1.98155 -1.70619 8.27584 2.12625 0.081147 
